<svg id="Capa_1" enable-background="new 0 0 512 512" height="512" viewBox="0 0 512 512" width="512" xmlns="http://www.w3.org/2000/svg"><g><path d="m272.517 238.106c-10.225-3.614-21.502-7.956-27.618-12.752-.878-.688-1.476-3.054-.955-5.819.273-1.448 1.532-6.283 6.275-7.713 9.318-2.807 15.61.84 17.884 2.538 6.635 4.958 16.035 3.6 20.995-3.036 4.959-6.636 3.6-16.035-3.036-20.995-2.363-1.765-7.935-5.43-15.894-7.662v-2.067c0-8.284-6.716-15-15-15s-15 6.716-15 15v2.973c-13.208 4.548-23.002 16.056-25.706 30.406-2.595 13.773 1.973 27.177 11.921 34.979 9.504 7.454 22.983 12.783 36.134 17.432 8.504 3.006 9.365 9.132 8.591 13.741-1.097 6.521-6.583 13.567-16.04 13.63-10.688.071-13.483-.367-21.414-5.555-6.932-4.535-16.229-2.592-20.764 4.341s-2.592 16.229 4.341 20.765c8.724 5.707 15.395 8.394 22.936 9.587v2.292c0 8.284 6.716 15 15 15s15-6.716 15-15v-3.915c17.078-5.839 27.992-21.102 30.525-36.172 3.518-20.91-7.806-39.798-28.175-46.998z"/><g><path d="m497 192.898h-33.28c-4.227-13.464-9.801-26.465-16.662-38.859l31.764-31.555c2.826-2.808 4.42-6.624 4.429-10.608.009-3.983-1.567-7.808-4.381-10.628l-67.87-68.027c-5.842-5.856-15.322-5.876-21.191-.046l-33.464 33.248c-11.961-6.13-24.457-11.138-37.353-14.97v-36.453c0-8.284-6.716-15-15-15h-95.984c-8.284 0-15 6.716-15 15v36.453c-12.896 3.832-25.391 8.84-37.352 14.97l-33.463-33.248c-5.869-5.831-15.349-5.81-21.191.046l-67.872 68.026c-2.814 2.82-4.39 6.645-4.381 10.628.009 3.984 1.602 7.801 4.429 10.608l31.764 31.555c-6.861 12.394-12.436 25.397-16.662 38.859h-33.28c-8.284 0-15 6.716-15 15v96.205c0 8.284 6.716 15 15 15h33.28c4.226 13.462 9.801 26.465 16.662 38.858l-31.764 31.555c-2.827 2.808-4.42 6.624-4.429 10.608-.009 3.983 1.567 7.808 4.381 10.628l67.871 68.027c5.842 5.855 15.323 5.875 21.191.046l33.463-33.249c11.961 6.13 24.457 11.138 37.352 14.97v36.455c0 8.284 6.716 15 15 15h95.984c8.284 0 15-6.716 15-15v-36.454c12.896-3.832 25.392-8.84 37.353-14.97l33.464 33.249c5.868 5.831 15.349 5.809 21.191-.046l67.87-68.027c2.813-2.82 4.39-6.645 4.381-10.628-.009-3.984-1.603-7.801-4.429-10.608l-31.764-31.555c6.861-12.395 12.436-25.395 16.662-38.858h33.281c8.284 0 15-6.716 15-15v-96.205c0-8.284-6.715-15-15-15zm-15 96.205h-29.614c-6.865 0-12.854 4.661-14.541 11.316-4.648 18.351-12.16 35.833-22.326 51.963-3.745 5.943-2.864 13.689 2.119 18.64l29.376 29.183-46.681 46.789-30.782-30.585c-4.814-4.784-12.244-5.738-18.112-2.326-15.888 9.238-33.023 16.091-50.931 20.367-6.753 1.612-11.517 7.647-11.517 14.59v32.96h-65.984v-32.961c0-6.942-4.764-12.978-11.516-14.59-17.907-4.276-35.042-11.129-50.93-20.367-5.869-3.413-13.298-2.46-18.113 2.326l-30.782 30.585-46.681-46.788 29.376-29.184c4.983-4.95 5.864-12.696 2.119-18.64-10.166-16.131-17.678-33.613-22.326-51.963-1.686-6.655-7.675-11.316-14.541-11.316h-29.613v-66.205h29.614c6.866 0 12.855-4.661 14.541-11.316 4.647-18.35 12.159-35.833 22.326-51.964 3.746-5.943 2.865-13.689-2.119-18.64l-29.377-29.183 46.681-46.788 30.782 30.584c4.816 4.784 12.243 5.739 18.113 2.326 15.888-9.238 33.023-16.091 50.93-20.367 6.752-1.612 11.516-7.647 11.516-14.59v-32.959h65.984v32.96c0 6.942 4.764 12.978 11.517 14.59 17.907 4.276 35.043 11.129 50.931 20.367 5.866 3.412 13.296 2.459 18.112-2.326l30.782-30.584 46.681 46.788-29.376 29.183c-4.983 4.95-5.864 12.696-2.119 18.64 10.166 16.13 17.678 33.613 22.326 51.964 1.687 6.655 7.676 11.316 14.541 11.316h29.614z"/><path d="m256.876 110.191c-80.653 0-146.269 66.136-146.269 147.428s65.616 147.429 146.269 147.429c80.652 0 146.268-66.137 146.268-147.429s-65.615-147.428-146.268-147.428zm0 264.856c-64.111 0-116.269-52.679-116.269-117.429s52.158-117.428 116.269-117.428c64.11 0 116.268 52.678 116.268 117.428s-52.157 117.429-116.268 117.429z"/></g></g></svg>